<svg height="264px" version="1.1" width="78px" xmlns="http://www.w3.org/2000/svg" style="overflow: hidden; position: absolute; left: 0px; top: 0px;" xmlns:xlink="http://www.w3.org/1999/xlink"><defs style="-webkit-tap-highlight-color: rgba(0, 0, 0, 0);"><filter id="Sjin16cdcw" filterUnits="userSpaceOnUse"><feGaussianBlur stdDeviation="2.5"></feGaussianBlur><feColorMatrix values="0 0 0 0 0 0 0 0 0 0 0 0 0 0 0 0 0 0 0.5 0"></feColorMatrix></filter><linearGradient x1="0" y1="0" x2="1" y2="0" id="linearGradientSjin16cdc13"><stop offset="0%" stop-color="#000000" stop-opacity="0.1"></stop><stop offset="75%" stop-color="#000000" stop-opacity="0.1"></stop><stop offset="100%" stop-color="#ffffff" stop-opacity="0"></stop></linearGradient><filter id="Sjin16cdc19" filterUnits="userSpaceOnUse"><feGaussianBlur stdDeviation="1.5"></feGaussianBlur></filter><mask id="maskSjin16cdc1d"><g fill="#ffffff" style="" class="rhlp-shape"><path d="M 0 10 L 60 10 A 8 8 0 0 1 68 18 L 68 237 A 17 17 0 0 1 34 237 L 0 237 Z" id="pathSjin16cdcy"></path></g></mask><path d="M67.10277777777776,209.71980694444446C67.10277777777776,213.4503625,64.88333333333333,216.00036250000002,61.05833333333332,216.00036250000002C57.280555555555544,216.00036250000002,55.061111111111096,213.54480694444447,55.061111111111096,209.71980694444446C55.061111111111096,205.89480694444447,57.280555555555544,203.43925138888892,61.05833333333332,203.43925138888892C64.88333333333333,203.43925138888892,67.10277777777776,205.94202916666669,67.10277777777776,209.71980694444446C67.10277777777776,209.71980694444446,67.10277777777776,209.71980694444446,67.10277777777776,209.71980694444446M56.61944444444443,209.71980694444446C56.61944444444443,212.60036250000002,58.17777777777776,214.63091805555558,61.05833333333332,214.63091805555558C63.938888888888876,214.63091805555558,65.54444444444442,212.64758472222223,65.54444444444442,209.71980694444446C65.54444444444442,206.8392513888889,63.89166666666665,204.76147361111114,61.05833333333332,204.76147361111114C58.13055555555554,204.76147361111114,56.61944444444443,206.79202916666668,56.61944444444443,209.71980694444446C56.61944444444443,209.71980694444446,56.61944444444443,209.71980694444446,56.61944444444443,209.71980694444446M70.73888888888888,215.7642513888889C70.73888888888888,215.7642513888889,69.36944444444443,215.7642513888889,69.36944444444443,215.7642513888889C69.36944444444443,215.7642513888889,69.36944444444443,206.98091805555558,69.36944444444443,206.98091805555558C69.36944444444443,206.98091805555558,70.73888888888888,206.98091805555558,70.73888888888888,206.98091805555558C70.73888888888888,206.98091805555558,70.73888888888888,210.6170291666667,70.73888888888888,210.6170291666667C70.73888888888888,210.6170291666667,75.31944444444443,210.6170291666667,75.31944444444443,210.6170291666667C75.31944444444443,210.6170291666667,75.31944444444443,206.98091805555558,75.31944444444443,206.98091805555558C75.31944444444443,206.98091805555558,76.68888888888887,206.98091805555558,76.68888888888887,206.98091805555558C76.68888888888887,206.98091805555558,76.68888888888887,215.7642513888889,76.68888888888887,215.7642513888889C76.68888888888887,215.7642513888889,75.31944444444443,215.7642513888889,75.31944444444443,215.7642513888889C75.31944444444443,215.7642513888889,75.31944444444443,211.84480694444446,75.31944444444443,211.84480694444446C75.31944444444443,211.84480694444446,70.73888888888888,211.84480694444446,70.73888888888888,211.84480694444446C70.73888888888888,211.84480694444446,70.73888888888888,215.7642513888889,70.73888888888888,215.7642513888889C70.73888888888888,215.7642513888889,70.73888888888888,215.7642513888889,70.73888888888888,215.7642513888889M78.34166666666664,216.00036250000002C78.34166666666664,216.00036250000002,78.34166666666664,214.8670291666667,78.34166666666664,214.8670291666667C79.66388888888886,214.58369583333337,79.75833333333331,213.16702916666668,79.99444444444443,211.3253625C79.99444444444443,211.3253625,80.56111111111109,206.98091805555558,80.56111111111109,206.98091805555558C80.56111111111109,206.98091805555558,86.69999999999997,206.98091805555558,86.69999999999997,206.98091805555558C86.69999999999997,206.98091805555558,86.69999999999997,215.7642513888889,86.69999999999997,215.7642513888889C86.69999999999997,215.7642513888889,85.33055555555553,215.7642513888889,85.33055555555553,215.7642513888889C85.33055555555553,215.7642513888889,85.33055555555553,208.16147361111112,85.33055555555553,208.16147361111112C85.33055555555553,208.16147361111112,81.78888888888886,208.16147361111112,81.78888888888886,208.16147361111112C81.17499999999998,211.3253625,81.74166666666665,215.7170291666667,78.34166666666664,216.00036250000002C78.34166666666664,216.00036250000002,78.34166666666664,216.00036250000002,78.34166666666664,216.00036250000002M89.34444444444443,208.20869583333337C91.13888888888887,205.9892513888889,96.23888888888888,206.08369583333337,96.23888888888888,209.71980694444446C96.23888888888888,209.71980694444446,96.23888888888888,215.7642513888889,96.23888888888888,215.7642513888889C96.23888888888888,215.7642513888889,94.86944444444444,215.7642513888889,94.86944444444444,215.7642513888889C94.86944444444444,215.7642513888889,94.86944444444444,214.77258472222223,94.86944444444444,214.77258472222223C93.16944444444444,216.8031402777778,88.8722222222222,216.23647361111114,88.8722222222222,213.07258472222225C88.8722222222222,209.90869583333335,93.21666666666665,209.3892513888889,94.86944444444444,211.37258472222223C95.10555555555554,209.29480694444447,94.53888888888888,207.8781402777778,92.64999999999999,207.9253625C91.42222222222222,208.01980694444447,90.66666666666666,208.44480694444445,89.95833333333333,209.1531402777778C89.95833333333333,209.1531402777778,89.34444444444443,208.20869583333337,89.34444444444443,208.20869583333337M90.28888888888888,213.07258472222225C90.28888888888888,215.38647361111114,93.97222222222221,215.5281402777778,94.86944444444444,213.92258472222224C94.86944444444444,213.92258472222224,94.86944444444444,212.26980694444447,94.86944444444444,212.26980694444447C94.01944444444443,210.71147361111113,90.28888888888888,210.75869583333335,90.28888888888888,213.07258472222225C90.28888888888888,213.07258472222225,90.28888888888888,213.07258472222225,90.28888888888888,213.07258472222225M100.25277777777777,215.7642513888889C100.25277777777777,215.7642513888889,98.93055555555554,215.7642513888889,98.93055555555554,215.7642513888889C98.93055555555554,215.7642513888889,98.93055555555554,206.98091805555558,98.93055555555554,206.98091805555558C98.93055555555554,206.98091805555558,100.3,206.98091805555558,100.3,206.98091805555558C100.3,206.98091805555558,100.3,213.68647361111113,100.3,213.68647361111113C100.3,213.68647361111113,104.88055555555555,206.98091805555558,104.88055555555555,206.98091805555558C104.88055555555555,206.98091805555558,106.24999999999999,206.98091805555558,106.24999999999999,206.98091805555558C106.24999999999999,206.98091805555558,106.24999999999999,215.7642513888889,106.24999999999999,215.7642513888889C106.24999999999999,215.7642513888889,104.88055555555555,215.7642513888889,104.88055555555555,215.7642513888889C104.88055555555555,215.7642513888889,104.88055555555555,208.91702916666668,104.88055555555555,208.91702916666668C104.88055555555555,208.91702916666668,100.25277777777777,215.7642513888889,100.25277777777777,215.7642513888889M100.06388888888888,203.81702916666669C100.91388888888888,205.42258472222224,104.21944444444443,205.51702916666667,105.06944444444443,203.81702916666669C105.06944444444443,203.81702916666669,105.77777777777777,204.38369583333335,105.77777777777777,204.38369583333335C104.64444444444443,206.4142513888889,100.5361111111111,206.46147361111113,99.35555555555555,204.38369583333335C99.35555555555555,204.38369583333335,100.06388888888888,203.81702916666669,100.06388888888888,203.81702916666669M110.3111111111111,215.7642513888889C110.3111111111111,215.7642513888889,108.94166666666665,215.7642513888889,108.94166666666665,215.7642513888889C108.94166666666665,215.7642513888889,108.94166666666665,206.98091805555558,108.94166666666665,206.98091805555558C108.94166666666665,206.98091805555558,110.3111111111111,206.98091805555558,110.3111111111111,206.98091805555558C110.3111111111111,206.98091805555558,110.3111111111111,210.6170291666667,110.3111111111111,210.6170291666667C110.3111111111111,210.6170291666667,114.89166666666665,210.6170291666667,114.89166666666665,210.6170291666667C114.89166666666665,210.6170291666667,114.89166666666665,206.98091805555558,114.89166666666665,206.98091805555558C114.89166666666665,206.98091805555558,116.26111111111109,206.98091805555558,116.26111111111109,206.98091805555558C116.26111111111109,206.98091805555558,116.26111111111109,215.7642513888889,116.26111111111109,215.7642513888889C116.26111111111109,215.7642513888889,114.89166666666665,215.7642513888889,114.89166666666665,215.7642513888889C114.89166666666665,215.7642513888889,114.89166666666665,211.84480694444446,114.89166666666665,211.84480694444446C114.89166666666665,211.84480694444446,110.3111111111111,211.84480694444446,110.3111111111111,211.84480694444446C110.3111111111111,211.84480694444446,110.3111111111111,215.7642513888889,110.3111111111111,215.7642513888889C110.3111111111111,215.7642513888889,110.3111111111111,215.7642513888889,110.3111111111111,215.7642513888889M131.3722222222222,215.7642513888889C131.3722222222222,215.7642513888889,129.625,215.7642513888889,129.625,215.7642513888889C129.625,215.7642513888889,126.46111111111111,211.84480694444446,126.46111111111111,211.84480694444446C126.46111111111111,211.84480694444446,124.99722222222222,213.26147361111114,124.99722222222222,213.26147361111114C124.99722222222222,213.26147361111114,124.99722222222222,215.7642513888889,124.99722222222222,215.7642513888889C124.99722222222222,215.7642513888889,123.62777777777777,215.7642513888889,123.62777777777777,215.7642513888889C123.62777777777777,215.7642513888889,123.62777777777777,206.98091805555558,123.62777777777777,206.98091805555558C123.62777777777777,206.98091805555558,124.99722222222222,206.98091805555558,124.99722222222222,206.98091805555558C124.99722222222222,206.98091805555558,124.99722222222222,211.6559180555556,124.99722222222222,211.6559180555556C124.99722222222222,211.6559180555556,129.625,206.98091805555558,129.625,206.98091805555558C129.625,206.98091805555558,131.325,206.98091805555558,131.325,206.98091805555558C131.325,206.98091805555558,127.45277777777777,210.94758472222225,127.45277777777777,210.94758472222225C127.45277777777777,210.94758472222225,131.3722222222222,215.7642513888889,131.3722222222222,215.7642513888889M141.1,211.37258472222223C141.1,214.15869583333335,139.54166666666666,216.00036250000002,136.75555555555556,216.00036250000002C134.01666666666665,216.00036250000002,132.4111111111111,214.11147361111114,132.4111111111111,211.37258472222223C132.4111111111111,208.5392513888889,133.96944444444443,206.74480694444446,136.75555555555556,206.74480694444446C139.49444444444444,206.74480694444446,141.1,208.58647361111113,141.1,211.37258472222223C141.1,211.37258472222223,141.1,211.37258472222223,141.1,211.37258472222223M133.82777777777778,211.37258472222223C133.82777777777778,213.35591805555558,134.81944444444443,214.77258472222223,136.75555555555556,214.77258472222223C138.69166666666666,214.77258472222223,139.68333333333334,213.35591805555558,139.68333333333334,211.37258472222223C139.68333333333334,209.43647361111113,138.69166666666666,207.97258472222225,136.75555555555556,207.97258472222225C134.7722222222222,207.97258472222225,133.82777777777778,209.43647361111113,133.82777777777778,211.37258472222223C133.82777777777778,211.37258472222223,133.82777777777778,211.37258472222223,133.82777777777778,211.37258472222223M144.68888888888887,215.7642513888889C144.68888888888887,215.7642513888889,143.31944444444443,215.7642513888889,143.31944444444443,215.7642513888889C143.31944444444443,215.7642513888889,143.31944444444443,206.98091805555558,143.31944444444443,206.98091805555558C143.31944444444443,206.98091805555558,144.68888888888887,206.98091805555558,144.68888888888887,206.98091805555558C144.68888888888887,206.98091805555558,144.68888888888887,210.6170291666667,144.68888888888887,210.6170291666667C144.68888888888887,210.6170291666667,149.26944444444445,210.6170291666667,149.26944444444445,210.6170291666667C149.26944444444445,210.6170291666667,149.26944444444445,206.98091805555558,149.26944444444445,206.98091805555558C149.26944444444445,206.98091805555558,150.63888888888889,206.98091805555558,150.63888888888889,206.98091805555558C150.63888888888889,206.98091805555558,150.63888888888889,215.7642513888889,150.63888888888889,215.7642513888889C150.63888888888889,215.7642513888889,149.26944444444445,215.7642513888889,149.26944444444445,215.7642513888889C149.26944444444445,215.7642513888889,149.26944444444445,211.84480694444446,149.26944444444445,211.84480694444446C149.26944444444445,211.84480694444446,144.68888888888887,211.84480694444446,144.68888888888887,211.84480694444446C144.68888888888887,211.84480694444446,144.68888888888887,215.7642513888889,144.68888888888887,215.7642513888889C144.68888888888887,215.7642513888889,144.68888888888887,215.7642513888889,144.68888888888887,215.7642513888889M160.4138888888889,214.44202916666669C159.70555555555555,215.3392513888889,158.76111111111112,216.04758472222224,157.20277777777778,216.00036250000002C154.46388888888887,215.9059180555556,153,214.11147361111114,152.8111111111111,211.37258472222223C152.48055555555555,207.16980694444447,158.05277777777778,205.18647361111113,160.4138888888889,208.3031402777778C160.4138888888889,208.3031402777778,159.51666666666665,209.10591805555558,159.51666666666665,209.10591805555558C157.86388888888888,206.79202916666668,153.8972222222222,208.3031402777778,154.2277777777778,211.37258472222223C153.94444444444443,214.44202916666669,157.86388888888888,215.9531402777778,159.51666666666665,213.5920291666667C159.51666666666665,213.5920291666667,160.4138888888889,214.44202916666669,160.4138888888889,214.44202916666669M161.7833333333333,219.21147361111113C161.7833333333333,219.21147361111113,162.01944444444442,217.98369583333334,162.01944444444442,217.98369583333334C163.7194444444444,218.59758472222225,164.23888888888885,217.0392513888889,164.66388888888886,215.85869583333334C164.66388888888886,215.85869583333334,160.98055555555553,206.98091805555558,160.98055555555553,206.98091805555558C160.98055555555553,206.98091805555558,162.44444444444443,206.98091805555558,162.44444444444443,206.98091805555558C162.44444444444443,206.98091805555558,165.3722222222222,214.20591805555557,165.3722222222222,214.20591805555557C165.3722222222222,214.20591805555557,168.29999999999998,206.98091805555558,168.29999999999998,206.98091805555558C168.29999999999998,206.98091805555558,169.81111111111107,206.98091805555558,169.81111111111107,206.98091805555558C169.81111111111107,206.98091805555558,165.3722222222222,217.55869583333336,165.3722222222222,217.55869583333336C164.9472222222222,218.9281402777778,163.53055555555554,219.54202916666668,161.7833333333333,219.21147361111113C161.7833333333333,219.21147361111113,161.7833333333333,219.21147361111113,161.7833333333333,219.21147361111113M170.14166666666665,216.00036250000002C170.14166666666665,216.00036250000002,170.14166666666665,214.8670291666667,170.14166666666665,214.8670291666667C171.46388888888887,214.58369583333337,171.55833333333334,213.16702916666668,171.79444444444442,211.3253625C171.79444444444442,211.3253625,172.36111111111111,206.98091805555558,172.36111111111111,206.98091805555558C172.36111111111111,206.98091805555558,178.5,206.98091805555558,178.5,206.98091805555558C178.5,206.98091805555558,178.5,215.7642513888889,178.5,215.7642513888889C178.5,215.7642513888889,177.13055555555556,215.7642513888889,177.13055555555556,215.7642513888889C177.13055555555556,215.7642513888889,177.13055555555556,208.16147361111112,177.13055555555556,208.16147361111112C177.13055555555556,208.16147361111112,173.58888888888887,208.16147361111112,173.58888888888887,208.16147361111112C172.975,211.3253625,173.54166666666666,215.7170291666667,170.14166666666665,216.00036250000002C170.14166666666665,216.00036250000002,170.14166666666665,216.00036250000002,170.14166666666665,216.00036250000002M188.60555555555553,213.07258472222225C188.60555555555553,216.47258472222225,184.44999999999996,215.7170291666667,181.19166666666663,215.7642513888889C181.19166666666663,215.7642513888889,181.19166666666663,206.98091805555558,181.19166666666663,206.98091805555558C181.19166666666663,206.98091805555558,182.56111111111107,206.98091805555558,182.56111111111107,206.98091805555558C182.56111111111107,206.98091805555558,182.56111111111107,210.38091805555558,182.56111111111107,210.38091805555558C185.5361111111111,210.33369583333337,188.60555555555553,210.0503625,188.60555555555553,213.07258472222225C188.60555555555553,213.07258472222225,188.60555555555553,213.07258472222225,188.60555555555553,213.07258472222225M187.18888888888887,213.07258472222225C187.18888888888887,210.99480694444446,184.4972222222222,211.6559180555556,182.56111111111107,211.56147361111113C182.56111111111107,211.56147361111113,182.56111111111107,214.58369583333337,182.56111111111107,214.58369583333337C184.4972222222222,214.4892513888889,187.18888888888887,215.15036250000003,187.18888888888887,213.07258472222225C187.18888888888887,213.07258472222225,187.18888888888887,213.07258472222225,187.18888888888887,213.07258472222225M193.6111111111111,215.7642513888889C193.6111111111111,215.7642513888889,192.24166666666665,215.7642513888889,192.24166666666665,215.7642513888889C192.24166666666665,215.7642513888889,192.24166666666665,208.16147361111112,192.24166666666665,208.16147361111112C192.24166666666665,208.16147361111112,189.69166666666666,208.16147361111112,189.69166666666666,208.16147361111112C189.69166666666666,208.16147361111112,189.69166666666666,206.98091805555558,189.69166666666666,206.98091805555558C189.69166666666666,206.98091805555558,196.1611111111111,206.98091805555558,196.1611111111111,206.98091805555558C196.1611111111111,206.98091805555558,196.1611111111111,208.16147361111112,196.1611111111111,208.16147361111112C196.1611111111111,208.16147361111112,193.6111111111111,208.16147361111112,193.6111111111111,208.16147361111112C193.6111111111111,208.16147361111112,193.6111111111111,215.7642513888889,193.6111111111111,215.7642513888889C193.6111111111111,215.7642513888889,193.6111111111111,215.7642513888889,193.6111111111111,215.7642513888889M197.8611111111111,208.20869583333337C199.65555555555554,205.9892513888889,204.75555555555553,206.08369583333337,204.75555555555553,209.71980694444446C204.75555555555553,209.71980694444446,204.75555555555553,215.7642513888889,204.75555555555553,215.7642513888889C204.75555555555553,215.7642513888889,203.3861111111111,215.7642513888889,203.3861111111111,215.7642513888889C203.3861111111111,215.7642513888889,203.3861111111111,214.77258472222223,203.3861111111111,214.77258472222223C201.68611111111107,216.8031402777778,197.38888888888886,216.23647361111114,197.38888888888886,213.07258472222225C197.38888888888886,209.90869583333335,201.73333333333332,209.3892513888889,203.3861111111111,211.37258472222223C203.6222222222222,209.29480694444447,203.05555555555554,207.8781402777778,201.16666666666663,207.9253625C199.93888888888887,208.01980694444447,199.1833333333333,208.44480694444445,198.47499999999997,209.1531402777778C198.47499999999997,209.1531402777778,197.8611111111111,208.20869583333337,197.8611111111111,208.20869583333337M198.80555555555554,213.07258472222225C198.80555555555554,215.38647361111114,202.48888888888885,215.5281402777778,203.3861111111111,213.92258472222224C203.3861111111111,213.92258472222224,203.3861111111111,212.26980694444447,203.3861111111111,212.26980694444447C202.5361111111111,210.71147361111113,198.80555555555554,210.75869583333335,198.80555555555554,213.07258472222225C198.80555555555554,213.07258472222225,198.80555555555554,213.07258472222225,198.80555555555554,213.07258472222225M208.81666666666663,215.7642513888889C208.81666666666663,215.7642513888889,207.4472222222222,215.7642513888889,207.4472222222222,215.7642513888889C207.4472222222222,215.7642513888889,207.4472222222222,206.98091805555558,207.4472222222222,206.98091805555558C207.4472222222222,206.98091805555558,208.81666666666663,206.98091805555558,208.81666666666663,206.98091805555558C208.81666666666663,206.98091805555558,208.81666666666663,210.6170291666667,208.81666666666663,210.6170291666667C208.81666666666663,210.6170291666667,213.3972222222222,210.6170291666667,213.3972222222222,210.6170291666667C213.3972222222222,210.6170291666667,213.3972222222222,206.98091805555558,213.3972222222222,206.98091805555558C213.3972222222222,206.98091805555558,214.76666666666665,206.98091805555558,214.76666666666665,206.98091805555558C214.76666666666665,206.98091805555558,214.76666666666665,215.7642513888889,214.76666666666665,215.7642513888889C214.76666666666665,215.7642513888889,213.3972222222222,215.7642513888889,213.3972222222222,215.7642513888889C213.3972222222222,215.7642513888889,213.3972222222222,211.84480694444446,213.3972222222222,211.84480694444446C213.3972222222222,211.84480694444446,208.81666666666663,211.84480694444446,208.81666666666663,211.84480694444446C208.81666666666663,211.84480694444446,208.81666666666663,215.7642513888889,208.81666666666663,215.7642513888889C208.81666666666663,215.7642513888889,208.81666666666663,215.7642513888889,208.81666666666663,215.7642513888889M220.4333333333333,215.7642513888889C220.4333333333333,215.7642513888889,219.06388888888887,215.7642513888889,219.06388888888887,215.7642513888889C219.06388888888887,215.7642513888889,219.06388888888887,208.16147361111112,219.06388888888887,208.16147361111112C219.06388888888887,208.16147361111112,216.51388888888889,208.16147361111112,216.51388888888889,208.16147361111112C216.51388888888889,208.16147361111112,216.51388888888889,206.98091805555558,216.51388888888889,206.98091805555558C216.51388888888889,206.98091805555558,222.98333333333332,206.98091805555558,222.98333333333332,206.98091805555558C222.98333333333332,206.98091805555558,222.98333333333332,208.16147361111112,222.98333333333332,208.16147361111112C222.98333333333332,208.16147361111112,220.4333333333333,208.16147361111112,220.4333333333333,208.16147361111112C220.4333333333333,208.16147361111112,220.4333333333333,215.7642513888889,220.4333333333333,215.7642513888889C220.4333333333333,215.7642513888889,220.4333333333333,215.7642513888889,220.4333333333333,215.7642513888889" transform="matrix(0,-1,1,0,-159,261)" id="pathSjin16cdc1f"></path></defs><use xlink:href="#pathSjin16cdcy" filter="url('#Sjin16cdcw')" stroke="none" style="fill-opacity: 0.75;"></use><use xlink:href="#pathSjin16cdcy" fill="#3aa757" stroke="none" style="fill-opacity: 0.9;"></use><use xlink:href="#pathSjin16cdcy" fill="url('#linearGradientSjin16cdc13')" stroke="none" style=""></use><path d="M 0 9 L 60 9 A 8 9 0 0 1 68 18 L 68 254 L 67 254 L 67 18 A 7 6 0 0 0 60 12 L 0 12 Z" stroke="rgba(255,255,255,0.175)" fill="rgba(255,255,255,0.175)" filter="url('#Sjin16cdc19')" mask="url('#maskSjin16cdc1d')" style="stroke-width: 1;" class="rhlp-shape"></path><use xlink:href="#pathSjin16cdc1f" fill="rgba(0,0,0,0.2)" style="stroke-width: 0;"></use><use xlink:href="#pathSjin16cdc1f" fill="#ffffff" transform="matrix(1,0,0,1,0,1)" style="stroke-width: 0;"></use><g stroke="#000000" fill="none" style="stroke-width: 1.1; fill-rule: evenodd; stroke-opacity: 0.2;" class="rhlp-shape"><polyline points="47.6,20,51.8,24.2,47.6,28.4"></polyline><polyline points="51.2,20,55.4,24.2,51.2,28.4"></polyline></g><g stroke="#ffffff" fill="none" style="stroke-width: 1.1; fill-rule: evenodd; stroke-opacity: 1;" class="rhlp-shape"><polyline points="47.6,21,51.8,25.2,47.6,29.4"></polyline><polyline points="51.2,21,55.4,25.2,51.2,29.4"></polyline></g></svg>